Coordinates
version=1
nRows=17
nColumns=36
inDegrees=yes

Units are S.I. units (second, meters, Newtons, ...)
If the header above contains a line with 'inDegrees', this indicates whether rotational values are in degrees (yes) or radians (no).

endheader
time	pelvis_tilt	pelvis_list	pelvis_rotation	pelvis_tx	pelvis_ty	pelvis_tz	hip_flexion_r	hip_adduction_r	hip_rotation_r	knee_angle_r	knee_angle_r_beta	ankle_angle_r	subtalar_angle_r	mtp_angle_r	hip_flexion_l	hip_adduction_l	hip_rotation_l	knee_angle_l	knee_angle_l_beta	ankle_angle_l	subtalar_angle_l	mtp_angle_l	lumbar_extension	lumbar_bending	lumbar_rotation	arm_flex_r	arm_add_r	arm_rot_r	elbow_flex_r	pro_sup_r	arm_flex_l	arm_add_l	arm_rot_l	elbow_flex_l	pro_sup_l
      2.30833330	    -20.48523402	      2.53018506	     -1.50397233	      0.31318898	      1.26785349	     -0.07780464	     26.07409189	     -4.69713147	     -4.21765433	      0.63107016	      0.01101425	    -40.72309518	      3.85162024	     -7.49999987	     27.85964545	     -1.55683349	     -7.21446704	      0.79544039	      0.01388305	    -44.79557950	      5.32450704	     -7.49999987	     -3.66938858	     -0.34379282	      3.25616935	    104.43391448	    -33.10119635	     30.93392674	    104.54709227	     92.05236621	     93.79137868	    -30.28709852	     18.76741914	    108.72652194	     87.62561086
      2.31250000	    -20.56501984	      2.71820266	     -1.57827569	      0.31334122	      1.26798382	     -0.07697590	     26.42927065	     -4.95063559	     -4.53934036	      0.70206172	      0.01225329	    -41.03315509	      3.63306661	     -7.49999987	     28.08397946	     -1.43579592	     -6.75206876	      0.73814479	      0.01288306	    -44.72903386	      5.29176668	     -7.49999987	     -4.02041289	     -0.47682586	      3.20103107	    104.01667165	    -32.23426727	     29.95046051	    104.27852464	     92.08902729	     93.76090637	    -30.54704414	     18.83089771	    109.10614397	     87.48359986
      2.31666670	    -20.64823414	      2.96007344	     -1.65350852	      0.31417676	      1.26000939	     -0.07564272	     26.79838442	     -5.23179590	     -4.34673497	      0.84514613	      0.01475058	    -40.94948640	      3.81968436	     -7.49999987	     28.35731598	     -1.27323548	     -6.59044641	      0.89514936	      0.01562330	    -44.47067989	      5.09826418	     -7.49999987	     -4.36666225	     -0.72969480	      3.36019301	    104.04774296	    -31.80848859	     28.98565145	    104.08617203	     90.39687137	     93.73109718	    -30.89765643	     18.61047553	    109.93427994	     86.14608041
      2.32083330	    -20.82154690	      3.09103140	     -1.48774724	      0.31857845	      1.25671259	     -0.07158471	     26.88501741	     -5.28674856	     -3.71853970	      0.80424335	      0.01403669	    -40.83647786	      4.23142455	     -7.49999987	     28.57212940	     -1.16633057	     -6.33844049	      0.97154035	      0.01695658	    -44.40732948	      5.19540812	     -7.49999987	     -4.39674504	     -1.05336668	      3.42070191	    104.40037040	    -31.88942487	     28.80539230	    103.90514496	     90.41355592	     93.75892346	    -31.01874695	     18.68069888	    110.09100975	     86.17972049
      2.32500000	    -20.94056459	      3.18644209	     -1.55747312	      0.31932929	      1.25350883	     -0.07096403	     27.14611734	     -5.30627476	     -3.09350166	      1.01371593	      0.01769268	    -40.34168476	      4.94738586	     -7.49999987	     28.80969285	     -1.17014606	     -5.90258762	      1.24748854	      0.02177278	    -43.70879712	      5.44626351	     -7.49999987	     -4.63360689	     -1.12096371	      3.53949238	    104.99835329	    -32.34076106	     29.01657370	    103.86536317	     91.81534068	     93.88530407	    -31.67752692	     18.97949513	    111.44527887	     87.20992128
      2.32916670	    -20.93787848	      3.09090768	     -1.64851920	      0.31927820	      1.24398094	     -0.07075256	     27.27411335	     -5.08963352	     -2.85429220	      1.14450720	      0.01997542	    -39.92821992	      4.91242726	     -7.49999987	     28.90304842	     -1.43200170	     -6.11821484	      1.52805581	      0.02666961	    -42.87473561	      4.60541153	     -7.49999987	     -4.82508386	     -1.03351081	      3.65897602	    105.73371171	    -32.40712571	     29.43602700	    103.30884725	     89.05478788	     94.82700893	    -31.06024302	     19.78291758	    111.18326157	     84.85882277
      2.33333330	    -20.90415950	      2.88573765	     -1.69615948	      0.31920598	      1.23762076	     -0.07143577	     27.27715113	     -4.95064982	     -2.62935533	      1.31620278	      0.02297207	    -39.32288349	      5.04922461	     -7.49999987	     29.16077822	     -1.68613750	     -5.74172433	      1.89771777	      0.03312142	    -41.67340683	      4.74194255	     -7.49999987	     -5.05672891	     -0.83641324	      4.00365273	    107.18153887	    -32.15951046	     30.64544899	    101.82590000	     91.16151754	     96.13601236	    -29.32794373	     19.90272536	    109.85297521	     86.70508208
      2.33750000	    -20.76313433	      2.75942898	     -1.79403945	      0.31920920	      1.23442683	     -0.07161755	     27.11167881	     -4.88240385	     -2.54133651	      1.38851820	      0.02423421	    -38.70130661	      5.31729647	     -7.49999987	     29.35028588	     -1.84187754	     -5.70412122	      2.34816783	      0.04098326	    -40.33142207	      5.09856693	     -7.49999987	     -5.44960992	     -0.51853438	      3.85244697	    106.60754216	    -31.98419840	     30.07571905	    102.68114252	     88.70778837	     97.08889347	    -28.81109751	     20.35491166	    109.58037062	     84.55793033
      2.34166670	    -20.77687372	      2.80591132	     -2.18682691	      0.31499699	      1.22794628	     -0.07514459	     27.44171970	     -4.91044942	     -3.06352548	      1.44147039	      0.02515840	    -38.70209594	      4.67151875	     -7.49999987	     29.90418675	     -1.94890503	     -5.97476244	      2.97889558	      0.05199154	    -39.32373012	      5.83531869	     -7.49999987	     -5.67493289	     -0.50700697	      4.47690302	    105.88370854	    -32.31651197	     29.34330021	    103.00521559	     92.19303698	     97.71150251	    -27.45352655	     20.10403193	    108.89953536	     88.24797363
      2.34583330	    -20.94726466	      3.05536032	     -2.51353228	      0.31979931	      1.22395627	     -0.06971791	     27.82338936	     -4.98607432	     -4.00933243	      1.50972852	      0.02634973	    -38.45742973	      3.87304179	     -7.49999987	     30.24704691	     -2.06158774	     -6.45274803	      3.21528128	      0.05611724	    -39.20769626	      6.62418568	     -7.49999987	     -5.31107884	     -0.81595209	      4.82376782	    104.81787419	    -32.17021432	     29.55936688	    102.75738366	     89.37690965	     96.72468303	    -27.36097523	     20.35494756	    108.72383225	     85.64915870
      2.35000000	    -20.50902589	      3.07114867	     -2.23051296	      0.31954994	      1.21768589	     -0.06961647	     27.40003953	     -5.20792280	     -4.76040061	      1.34074746	      0.02340046	    -37.81345967	      4.10731204	     -7.49999987	     29.86677976	     -2.02444578	     -5.98794675	      3.28991688	      0.05741988	    -38.30444750	      7.31401486	     -7.49999987	     -6.39545647	     -0.88229062	      4.65360697	    105.60224586	    -32.31755307	     29.71053822	    103.82553511	     87.81893920	     97.10765125	    -27.07476824	     20.43201577	    109.13958297	     84.21357949
      2.35416670	    -20.27456522	      3.16668808	     -1.96724087	      0.31963959	      1.21482825	     -0.06921371	     27.32674138	     -5.45935941	     -5.29486769	      1.55922962	      0.02721369	    -37.07999443	      4.09451308	     -7.49999987	     29.86371487	     -2.03442424	     -5.94590108	      3.64038072	      0.06353663	    -37.76801466	      8.00501428	     -7.49999987	     -6.89374735	     -1.06917755	      4.64459167	    105.18009730	    -32.24184361	     29.68726762	    104.11485494	     91.76731133	     96.80112026	    -26.59580944	     20.18597044	    108.83854822	     87.45818644
      2.35833330	    -20.27035808	      3.30008762	     -1.69679282	      0.31985849	      1.20478762	     -0.06852901	     27.61178391	     -5.69954698	     -5.20440710	      1.64409188	      0.02869482	    -36.99725799	      5.03259168	     -7.49999987	     30.09750699	     -1.92944691	     -5.80041247	      4.02147304	      0.07018795	    -37.37625928	      8.30570557	     -7.49999987	     -7.18363726	     -0.97705906	      4.28374838	    105.70125777	    -31.17826551	     30.88815576	    103.49626921	     91.04142122	     96.67976810	    -27.21314266	     19.71357462	    109.22587788	     86.47031748
      2.36250000	    -20.08317100	      3.28994404	     -1.62674976	      0.32027003	      1.20080266	     -0.06830333	     27.56952047	     -5.83724104	     -4.58726552	      1.51516425	      0.02644460	    -37.11161498	      6.01889424	     -7.49999987	     30.11137819	     -2.06887287	     -5.07415955	      4.16827417	      0.07275011	    -37.23307170	      9.15269161	     -7.49999987	     -7.59298503	     -1.10420793	      4.10041511	    105.32248900	    -31.14967280	     30.96580258	    103.55160697	     90.11008061	     96.97019826	    -27.11286861	     20.13000537	    109.38184972	     85.62602566
      2.36666670	    -19.98436320	      3.14867085	     -1.67691463	      0.31996806	      1.18780060	     -0.06853325	     27.58985377	     -5.78283010	     -4.39426776	      1.47941703	      0.02582070	    -36.74570276	      6.69358902	     -7.49999987	     30.43278745	     -2.38771975	     -4.90567998	      4.55352670	      0.07947403	    -36.78786981	      9.67276880	     -7.49999987	     -7.71181430	     -0.75856584	      4.35118456	    105.61240961	    -30.92396051	     31.18932235	    102.87285810	     92.18638157	     96.61026380	    -26.76550994	     19.56047076	    109.37416116	     86.93794436
      2.37083330	    -19.94462353	      3.04701822	     -1.82417156	      0.32412752	      1.18153115	     -0.06474239	     27.44534104	     -5.52547966	     -4.63927787	      1.36968166	      0.02390545	    -36.29498164	      6.37929283	     -7.49999987	     30.51037228	     -2.78551950	     -5.06066514	      4.75915668	      0.08306295	    -35.94375478	     10.23444847	     -7.49999987	     -7.66249155	     -0.82831280	      4.34655117	    104.74414323	    -30.73943563	     30.74594224	    103.18302536	     89.90688933	     96.12507792	    -26.97150718	     19.66907452	    109.73426533	     84.97964626
      2.37500000	    -19.92606473	      3.04873302	     -2.07056736	      0.31967733	      1.17549067	     -0.06867779	     27.74328014	     -5.61112627	     -5.15190155	      1.51513017	      0.02644401	    -35.82893896	      6.09046339	     -7.49999987	     30.80777422	     -2.88389518	     -5.26067273	      5.15316106	      0.08993963	    -35.50772556	     10.86861793	     -7.49999987	     -7.91712124	     -0.78849176	      4.24066253	    104.16761742	    -30.52383474	     30.86739932	    103.50237297	     87.18741131	     95.99923705	    -27.23968384	     19.62821082	    110.00776722	     82.54828581
